<svg id="Layer_1" data-name="Layer 1" xmlns="http://www.w3.org/2000/svg" viewBox="0 0 435.92 101.87"><defs><style>.cls-1{fill:#fff;}</style></defs><path class="cls-1" d="M129,333.8H110.21a7.11,7.11,0,0,0,4-2.25,6,6,0,0,0,1.54-4.15V235.73L96.93,317.08,93,333.8l-.36-1.66L71.43,241v86.93a5.68,5.68,0,0,0,1.43,3.91,6.51,6.51,0,0,0,3.67,2h-11a5.91,5.91,0,0,0,3.68-2,5.67,5.67,0,0,0,1.42-3.91V238.46a4,4,0,0,0-.12-1.19,4.85,4.85,0,0,0-1.3-2.72,6,6,0,0,0-3.68-2H77.24l19.22,82.89,19.32-82.89H129a6.4,6.4,0,0,0-4,2.14,6,6,0,0,0-1.55,4.15V327.4a6.52,6.52,0,0,0,1.55,4.27A7.72,7.72,0,0,0,129,333.8Z" transform="translate(-65.5 -232.53)"/><path class="cls-1" d="M160.85,333.8a5.28,5.28,0,0,0,3.32-1.89,5.18,5.18,0,0,0,1.3-3.44,2.59,2.59,0,0,0-.12-1l-4.27-23.84a29.56,29.56,0,0,0-3.2-8.65,20.62,20.62,0,0,0-3.79-5.1,7.47,7.47,0,0,0-5-1.9,9.37,9.37,0,0,0-6.29,2.73,13.51,13.51,0,0,0-3.91,7.35l-3.8,20.63-.35,1.66L133.45,328a.77.77,0,0,0-.11.48v.47a4.2,4.2,0,0,0,1.18,3.09,5.17,5.17,0,0,0,3,1.77H126.58a7.29,7.29,0,0,0,6-5.92l1.55-7.83.23-1.54,13.88-75.31a28.74,28.74,0,0,0,.35-4,25.7,25.7,0,0,0-.23-3.32,12.36,12.36,0,0,0-.72-2,10,10,0,0,0-.83-1.07c-.11,0-.11-.12-.23-.12l-.12-.12h9.37l17.19,95a7.55,7.55,0,0,0,2.26,4.15,7.28,7.28,0,0,0,4.15,2.13Zm-20.28-44.7a6.91,6.91,0,0,1,3-2.26,12.82,12.82,0,0,1,3.68-.59,10.44,10.44,0,0,1,4.39.95,13.18,13.18,0,0,1,4.86,4.27,33.22,33.22,0,0,1,2.85,5.22l.71,1.42-10.44-57.87Z" transform="translate(-65.5 -232.53)"/><path class="cls-1" d="M199.51,232.53a6.4,6.4,0,0,0-4,2.14,6,6,0,0,0-1.55,4.15V317.2a16.59,16.59,0,0,1-16.6,16.6h-.83a10.24,10.24,0,0,0,7-3.91,14.21,14.21,0,0,0,2.84-9.13V238.82a6,6,0,0,0-1.54-4.15,6.43,6.43,0,0,0-4-2.14Z" transform="translate(-65.5 -232.53)"/><path class="cls-1" d="M217.53,232.53a6.45,6.45,0,0,0-3.91,2.14,6,6,0,0,0-1.54,4.15V327.4a6,6,0,0,0,1.54,4.15,7.23,7.23,0,0,0,3.91,2.25H198.91a7.17,7.17,0,0,0,4-2.25,6,6,0,0,0,1.54-4.15V238.82a6,6,0,0,0-1.54-4.15,6.45,6.45,0,0,0-4-2.14Z" transform="translate(-65.5 -232.53)"/><path class="cls-1" d="M243.5,233.24V327.4a6.77,6.77,0,0,0,1.54,4.27A6.69,6.69,0,0,0,249,333.8H230.34a6.49,6.49,0,0,0,5.57-6.4V233.24h-4c-8.78,0-15.18,5.81-17.31,15.06L216,232.53h47.43l1.31,15.77c-2.14-9.25-8.54-15.06-17.2-15.06Z" transform="translate(-65.5 -232.53)"/><path class="cls-1" d="M291.29,333.8a5.25,5.25,0,0,0,3.32-1.89,5.19,5.19,0,0,0,1.31-3.44,2.59,2.59,0,0,0-.12-1l-4.27-23.84a29.85,29.85,0,0,0-3.2-8.65,20.85,20.85,0,0,0-3.8-5.1,7.47,7.47,0,0,0-5-1.9,9.34,9.34,0,0,0-6.28,2.73,13.52,13.52,0,0,0-3.92,7.35l-3.79,20.63-.36,1.66L263.9,328a.72.72,0,0,0-.12.48v.47A4.21,4.21,0,0,0,265,332a5.17,5.17,0,0,0,3,1.77H257a7.3,7.3,0,0,0,6.05-5.92l1.54-7.83.24-1.54,13.87-75.31a27.48,27.48,0,0,0,.36-4,23.82,23.82,0,0,0-.24-3.32,12.48,12.48,0,0,0-.71-2,11.45,11.45,0,0,0-.83-1.07c-.12,0-.12-.12-.24-.12l-.12-.12h9.37l17.2,95a7.47,7.47,0,0,0,2.25,4.15,7.34,7.34,0,0,0,4.15,2.13ZM271,289.1a6.88,6.88,0,0,1,3-2.26,12.71,12.71,0,0,1,3.68-.59,10.36,10.36,0,0,1,4.38.95,13,13,0,0,1,4.86,4.27,32.42,32.42,0,0,1,2.85,5.22l.71,1.42L280,240.24Z" transform="translate(-65.5 -232.53)"/><path class="cls-1" d="M399.44,333.8H380.7a7.14,7.14,0,0,0,4-2.25,6,6,0,0,0,1.54-4.15V235.73l-18.86,81.35-3.91,16.72-.36-1.66L341.93,241v86.93a5.67,5.67,0,0,0,1.42,3.91,6.54,6.54,0,0,0,3.68,2H336a5.91,5.91,0,0,0,3.67-2,5.68,5.68,0,0,0,1.43-3.91V238.46a4,4,0,0,0-.12-1.19,4.86,4.86,0,0,0-1.31-2.72,6,6,0,0,0-3.67-2h11.74L367,315.42l19.33-82.89h13.16a6.43,6.43,0,0,0-4,2.14,6,6,0,0,0-1.54,4.15V327.4a6.51,6.51,0,0,0,1.54,4.27A7.76,7.76,0,0,0,399.44,333.8Z" transform="translate(-65.5 -232.53)"/><path class="cls-1" d="M431.34,333.8a5.25,5.25,0,0,0,3.32-1.89,5.19,5.19,0,0,0,1.31-3.44,2.59,2.59,0,0,0-.12-1l-4.27-23.84a29.85,29.85,0,0,0-3.2-8.65,20.85,20.85,0,0,0-3.8-5.1,7.47,7.47,0,0,0-5-1.9,9.34,9.34,0,0,0-6.28,2.73,13.52,13.52,0,0,0-3.92,7.35l-3.79,20.63-.36,1.66L404,328a.72.72,0,0,0-.12.48v.47A4.2,4.2,0,0,0,405,332a5.17,5.17,0,0,0,3,1.77H397.07a7.3,7.3,0,0,0,6.05-5.92l1.54-7.83.24-1.54,13.87-75.31a27.48,27.48,0,0,0,.36-4,23.82,23.82,0,0,0-.24-3.32,5.47,5.47,0,0,0-1.54-3.08c-.12,0-.12-.12-.24-.12l-.12-.12h9.37l17.2,95a7.47,7.47,0,0,0,2.25,4.15A7.31,7.31,0,0,0,450,333.8Zm-20.28-44.7a6.88,6.88,0,0,1,3-2.26,12.7,12.7,0,0,1,3.67-.59,10.41,10.41,0,0,1,4.39.95,13,13,0,0,1,4.86,4.27,32.42,32.42,0,0,1,2.85,5.22l.71,1.42-10.43-57.87Z" transform="translate(-65.5 -232.53)"/><path class="cls-1" d="M458.38,327.52q-6-6.94-9.25-18.5a100.47,100.47,0,0,1,0-51.23c2.25-7.71,5.45-13.76,9.6-18.38a19.34,19.34,0,0,1,14.95-6.88h18.14l1.3,15.77c-2.72-10.08-8.42-15.06-17.19-15.06h-1.54c-4.63,0-8.42,2.26-11.51,6.76s-5.57,10.56-7.11,18.15a127.15,127.15,0,0,0-2.37,25.26c0,13.87,2,25.61,6.05,35.45s8.77,14.71,14.23,14.71a19.07,19.07,0,0,0,5-.95c3.79-1.31,6.52-4,8.18-8.3a52.76,52.76,0,0,0,2.25-10.08,8.88,8.88,0,0,1,.12-1.78,93.92,93.92,0,0,0,.48-11.15c0-15.18-3-25.49-8.78-30.95a32.19,32.19,0,0,0-7.59-5c-7.35-3.79-11-9.13-11-15.77a14.84,14.84,0,0,1,5.34-11.74,13.73,13.73,0,0,1,9.25-3.56H477c0,.12-.12.12-.36.12s-.71.12-1.3.24a16.24,16.24,0,0,0-9,5.57,13.83,13.83,0,0,0-3.2,9.37c0,3.2,1.19,6.28,3.56,9.48s6.17,5.7,11.74,7.59l.71.24c4.63,2,12.1,3.8,22.3,5.46a5.64,5.64,0,0,0-3.92,1.89c-1.07,1.31-1.54,3.8-1.54,7.59V333.8l-3.91-4.74a4.38,4.38,0,0,0-3.09-1.42,5,5,0,0,0-3.44,1.42,16.55,16.55,0,0,1-6.52,4.39,23,23,0,0,1-6.16.95A18.58,18.58,0,0,1,458.38,327.52Z" transform="translate(-65.5 -232.53)"/></svg>